<svg id="Layer_1" data-name="Layer 1" xmlns="http://www.w3.org/2000/svg" viewBox="0 0 353.24 596.03"><title>BlueCode</title><path d="M577.2,220.8,438.7,298.9l-5.9-3.4L286.9,211.8c-19.7-11.3-44.3,2.5-44.2,24.8l.6,127.2a38.7,38.7,0,0,1-.5-4.9l-1.2-165-1.2-165C240.2,6.6,264.7-7.3,284.5,4L430.7,87.3l146.2,83.3C596.6,181.9,596.8,209.8,577.2,220.8Z" transform="translate(-240.4 0.01)" style="fill:#2b6bb2"/><path d="M438.8,299.2l-6.5,4.7L287.5,410.2c-18.1,13.3-40.6-1.4-44-26.6l-.6-165.4c-.1-29,24.4-46.9,44.2-32.2L433,294.8Z" transform="translate(-240.4 0.01)" style="fill:#00489a"/><path d="M579,429.4,433.9,510.8,288.8,592.2c-19.6,11-44.3-3.1-44.4-25.5l-.8-165-.2-37.8c3.4,19.4,25.9,30.7,44,20.5l144.9-81.7,6.5-3.6,140,80.3C598.5,390.5,598.6,418.4,579,429.4Z" transform="translate(-240.4 0.01)" style="fill:#2b6bb2"/></svg>